v 0.000000 0.000000 0.099974
v 0.000000 0.525731 0.000000
v -0.117426 0.161623 0.000000
v 0.117426 0.161623 0.000000
v -0.500000 0.162460 0.000000
v -0.190000 -0.061734 0.000000
v -0.309017 -0.425325 0.000000
v 0.000000 -0.199778 0.000000
v 0.309017 -0.425325 0.000000
v 0.190000 -0.061734 0.000000
v 0.500000 0.162460 0.000000
v 0.000000 0.000000 -0.099974
v 0.000000 0.525731 0.000000
v -0.117426 0.161623 0.000000
v 0.117426 0.161623 0.000000
v -0.500000 0.162460 0.000000
v -0.190000 -0.061734 0.000000
v -0.309017 -0.425325 0.000000
v 0.000000 -0.199778 0.000000
v 0.309017 -0.425325 0.000000
v 0.190000 -0.061734 0.000000
v 0.500000 0.162460 0.000000

vt 0.000000 1.000000

vn 0.186283 -0.256397 -0.948451
vn 0.425616 -0.138291 -0.894274
vn 0.308632 -0.426755 -0.850075
vn 0.301412 0.097935 0.948451
vn 0.501240 0.161652 0.850075
vn 0.263045 0.362051 0.894274
vn -0.186283 -0.256397 0.948451
vn -0.425616 -0.138291 0.894274
vn -0.308632 -0.426755 0.850075
vn 0.000000 0.316924 0.948451
vn 0.001151 0.526661 0.850075
vn -0.263045 0.362051 0.894274
vn 0.186283 -0.256397 0.948451
vn 0.000000 -0.447519 0.894275
vn 0.310494 -0.425400 0.850075
vn -0.301412 0.097935 0.948451
vn -0.500528 0.163842 0.850075
vn 0.425616 -0.138291 0.894274
vn 0.500528 0.163842 0.850075
vn -0.310494 -0.425400 0.850075
vn -0.001151 0.526661 0.850075
vn 0.308632 -0.426755 0.850075
vn -0.301412 0.097935 -0.948451
vn -0.501240 0.161652 -0.850075
vn -0.263045 0.362051 -0.894274
vn 0.301412 0.097935 -0.948451
vn 0.263045 0.362051 -0.894274
vn 0.501240 0.161652 -0.850075
vn -0.186283 -0.256397 -0.948451
vn -0.308632 -0.426755 -0.850075
vn -0.425616 -0.138291 -0.894274
vn -0.000000 0.316924 -0.948451
vn 0.001151 0.526661 -0.850075
vn 0.310494 -0.425400 -0.850075
vn 0.000000 -0.447519 -0.894275
vn -0.500528 0.163842 -0.850075
vn 0.500528 0.163842 -0.850075
vn -0.310494 -0.425400 -0.850075
vn -0.001151 0.526661 -0.850075
vn -0.501240 0.161652 0.850075

f 22/1/3 21/1/2 12/1/1
f 4/1/6 2/1/5 1/1/4
f 5/1/9 6/1/8 1/1/7
f 3/1/12 5/1/11 1/1/10
f 7/1/15 8/1/14 1/1/13
f 6/1/8 7/1/17 1/1/16
f 9/1/19 10/1/18 1/1/4
f 8/1/14 9/1/20 1/1/7
f 11/1/21 4/1/6 1/1/10
f 10/1/18 11/1/22 1/1/13
f 14/1/25 13/1/24 12/1/23
f 13/1/28 15/1/27 12/1/26
f 17/1/31 16/1/30 12/1/29
f 16/1/33 14/1/25 12/1/32
f 19/1/35 18/1/34 12/1/1
f 18/1/36 17/1/31 12/1/23
f 21/1/2 20/1/37 12/1/26
f 20/1/38 19/1/35 12/1/29
f 15/1/27 22/1/39 12/1/32
f 2/1/40 3/1/12 1/1/16

